HIERARCHY
ROOT root
{
	OFFSET 0.000000 0.000000 0.000000
	CHANNELS 6 Xposition Yposition Zposition Zrotation Yrotation Xrotation
	JOINT lhip
	{
		OFFSET 0.058581 -0.082280 -0.017664
		CHANNELS 3 Zrotation Yrotation Xrotation
		JOINT lknee
		{
			OFFSET 0.043451 -0.386469 0.008037
			CHANNELS 3 Zrotation Yrotation Xrotation
			JOINT lankle
			{
				OFFSET -0.014790 -0.426874 -0.037428
				CHANNELS 3 Zrotation Yrotation Xrotation
				JOINT ltoe
				{
					OFFSET 0.041054 -0.060286 0.122042
					CHANNELS 3 Zrotation Yrotation Xrotation
					End Site
					{
						OFFSET 0.000000 0.000000 0.000000
					}
				}
			}
		}
	}
	JOINT rhip
	{
		OFFSET -0.060310 -0.090513 -0.013543
		CHANNELS 3 Zrotation Yrotation Xrotation
		JOINT rknee
		{
			OFFSET -0.043257 -0.383688 -0.004843
			CHANNELS 3 Zrotation Yrotation Xrotation
			JOINT rankle
			{
				OFFSET 0.019056 -0.420046 -0.034562
				CHANNELS 3 Zrotation Yrotation Xrotation
				JOINT rtoe
				{
					OFFSET -0.034840 -0.062106 0.130323
					CHANNELS 3 Zrotation Yrotation Xrotation
					End Site
					{
						OFFSET 0.000000 0.000000 0.000000
					}
				}
			}
		}
	}
	JOINT lowerback
	{
		OFFSET 0.004439 0.124404 -0.038385
		CHANNELS 3 Zrotation Yrotation Xrotation
		JOINT upperback
		{
			OFFSET 0.004488 0.137956 0.026820
			CHANNELS 3 Zrotation Yrotation Xrotation
			JOINT chest
			{
				OFFSET -0.002265 0.056032 0.002855
				CHANNELS 3 Zrotation Yrotation Xrotation
				JOINT lowerneck
				{
					OFFSET -0.013390 0.211636 -0.033468
					CHANNELS 3 Zrotation Yrotation Xrotation
					JOINT upperneck
					{
						OFFSET 0.010113 0.088937 0.050410
						CHANNELS 3 Zrotation Yrotation Xrotation
						End Site
						{
							OFFSET 0.000000 0.000000 0.000000
						}
					}
				}
				JOINT lclavicle
				{
					OFFSET 0.071702 0.114000 -0.018898
					CHANNELS 3 Zrotation Yrotation Xrotation
					JOINT lshoulder
					{
						OFFSET 0.122921 0.045205 -0.019046
						CHANNELS 3 Zrotation Yrotation Xrotation
						JOINT lelbow
						{
							OFFSET 0.255332 -0.015649 -0.022946
							CHANNELS 3 Zrotation Yrotation Xrotation
							JOINT lwrist
							{
								OFFSET 0.265709 0.012698 -0.007375
								CHANNELS 3 Zrotation Yrotation Xrotation
								End Site
								{
									OFFSET 0.000000 0.000000 0.000000
								}
							}
						}
					}
				}
				JOINT rclavicle
				{
					OFFSET -0.082954 0.112472 -0.023707
					CHANNELS 3 Zrotation Yrotation Xrotation
					JOINT rshoulder
					{
						OFFSET -0.113228 0.046853 -0.008472
						CHANNELS 3 Zrotation Yrotation Xrotation
						JOINT relbow
						{
							OFFSET -0.260127 -0.014369 -0.031269
							CHANNELS 3 Zrotation Yrotation Xrotation
							JOINT rwrist
							{
								OFFSET -0.269108 0.006794 -0.006027
								CHANNELS 3 Zrotation Yrotation Xrotation
								End Site
								{
									OFFSET 0.000000 0.000000 0.000000
								}
							}
						}
					}
				}
			}
		}
	}
}
MOTION
Frames: 9
Frame Time: 0.033333
-1.708132 0.267489 0.995564 89.162378 1.347384 87.906149 1.391062 2.662279 2.824903 -2.137069 -5.876230 4.594039 5.013767 9.716102 -15.308000 0.000000 -0.000000 0.000000 -1.702375 -2.457024 -3.948265 0.006332 -0.956581 15.270554 2.298056 -5.684822 -14.573923 0.000000 -0.000000 0.000000 0.987104 0.377476 7.200015 1.771799 -2.708950 -0.080884 0.249063 -0.927250 -1.840534 3.804601 -3.650943 -3.610673 1.319997 -8.788184 1.887721 -25.093537 -0.295176 2.526705 -61.366985 -6.767891 11.634138 5.516720 -25.358889 17.257972 2.993408 1.241446 3.494252 24.733564 3.792507 2.371718 61.923514 4.752180 16.547862 -10.154684 24.488754 9.522646 -10.450539 -0.684721 3.660167 
-1.707859 0.267802 0.995795 89.045549 1.217550 87.884080 1.162391 2.625274 2.966990 -2.069123 -5.915853 4.418224 5.166785 9.912749 -15.231869 0.000000 -0.000000 0.000000 -1.913702 -2.319232 -3.865075 0.153677 -0.738971 15.202585 2.682058 -5.959679 -14.738670 0.000000 -0.000000 0.000000 0.880951 0.302022 7.033933 1.694071 -2.642806 -0.002570 0.238333 -0.879921 -1.816456 3.868104 -3.457280 -3.515951 1.256209 -8.585690 1.921364 -24.980726 -0.194462 2.586770 -61.475516 -6.737192 11.981588 5.685041 -25.431610 17.506117 3.057385 1.318890 2.432726 24.777151 3.811563 2.360840 61.915120 4.553615 16.971575 -10.279233 24.625968 9.746046 -10.577059 -1.004893 3.139190 
-1.707252 0.267556 0.994274 88.611848 1.478371 88.445373 1.589881 2.730252 2.504524 -2.257990 -5.628507 4.239388 5.228913 9.930321 -15.070971 0.000000 -0.000000 0.000000 -1.510241 -1.835856 -4.583275 0.062121 -0.634509 15.344973 2.485580 -6.154655 -14.647209 0.000000 -0.000000 0.000000 1.028712 0.204657 5.994495 1.832516 -2.228121 0.222736 0.182271 -0.799599 -1.658983 3.802572 -3.527373 -3.213933 1.295599 -8.497174 1.591597 -24.940922 -0.092500 2.777713 -61.592038 -6.892648 12.033462 5.740628 -25.391682 17.652978 2.986937 1.497722 2.096161 24.575747 3.635999 2.584561 62.048602 4.672519 17.095100 -10.196535 24.680877 10.341501 -10.748857 -0.941761 2.896327 
-1.707302 0.268280 0.993243 88.448713 1.635893 88.672518 1.825009 2.691784 2.337458 -2.353983 -5.514788 4.139914 5.124434 10.042923 -14.934582 0.000000 -0.000000 0.000000 -1.311621 -1.560378 -4.904735 0.040624 -0.537990 15.429706 2.474431 -6.407209 -14.592195 0.000000 -0.000000 0.000000 1.160264 0.162999 5.619831 1.926983 -1.979528 0.212506 0.071626 -0.733882 -1.567995 3.879557 -3.439820 -3.368080 1.218157 -8.803141 2.419410 -25.048205 -0.205669 2.973573 -61.480143 -7.117631 12.094169 5.805996 -25.172694 17.398842 2.926509 1.401803 2.173490 24.807413 3.589965 2.660867 61.801161 4.580706 17.125401 -10.302450 24.739722 10.305355 -10.550520 -0.848951 2.681516 
-1.707529 0.268740 0.992961 88.476353 1.643924 88.600242 1.839743 2.714178 2.416809 -2.359173 -5.537436 4.129276 5.096013 10.017776 -14.919374 0.000000 -0.000000 0.000000 -1.326576 -1.592184 -4.864732 0.030615 -0.559878 15.494244 2.466928 -6.389693 -14.606423 0.000000 -0.000000 0.000000 1.177442 0.150355 5.776327 1.942427 -1.983064 0.211915 0.086974 -0.706352 -1.580442 3.837326 -3.457556 -3.325664 1.253285 -8.726029 2.180391 -25.039764 -0.253901 2.870675 -61.474304 -7.142837 12.115253 5.717648 -25.137895 17.443936 3.034303 1.462841 2.205027 24.743600 3.586021 2.598448 61.831818 4.568478 17.109557 -10.286801 24.764881 10.327371 -10.626061 -0.894649 2.716813 
-1.707919 0.268955 0.992883 88.487607 1.629146 88.541693 1.830930 2.729717 2.455953 -2.381649 -5.561432 4.134494 5.079469 10.009703 -14.926684 0.000000 -0.000000 0.000000 -1.357328 -1.591777 -4.850616 0.026187 -0.584071 15.543938 2.480451 -6.386775 -14.629458 0.000000 -0.000000 0.000000 1.162863 0.141602 5.911928 1.936123 -1.979840 0.189196 0.110719 -0.699432 -1.585295 3.808440 -3.434159 -3.330406 1.281326 -8.649360 2.032744 -25.012998 -0.325820 2.841160 -61.472577 -7.151116 12.140860 5.710442 -25.190557 17.455663 3.226284 1.380085 2.233066 24.699005 3.645274 2.578313 61.878292 4.585363 17.117995 -10.266872 24.738832 10.332319 -10.753429 -0.876060 2.734736 
-1.708331 0.269043 0.992861 88.499027 1.621593 88.497694 1.830943 2.723653 2.472741 -2.399480 -5.557804 4.147084 5.062169 9.982293 -14.949857 0.000000 -0.000000 0.000000 -1.370930 -1.589372 -4.848951 0.026416 -0.599547 15.582737 2.501682 -6.397787 -14.659803 0.000000 -0.000000 0.000000 1.134009 0.158341 6.016591 1.934186 -1.979231 0.156250 0.133726 -0.700588 -1.583217 3.824193 -3.362147 -3.412629 1.301596 -8.616572 2.005282 -25.033008 -0.413737 2.864854 -61.422327 -7.136174 12.161310 5.759901 -25.304082 17.404452 3.298262 1.318844 2.296904 24.742751 3.708175 2.564035 61.853601 4.575574 17.124862 -10.263214 24.739230 10.290640 -10.813312 -0.894616 2.726901 
-1.708660 0.269086 0.992745 88.530151 1.627719 88.470619 1.846015 2.725256 2.479025 -2.412977 -5.587797 4.162406 5.072587 9.945959 -14.982905 0.000000 -0.000000 0.000000 -1.368977 -1.620234 -4.859886 0.014272 -0.652841 15.632229 2.443107 -6.349950 -14.675485 0.000000 -0.000000 0.000000 1.090157 0.215529 5.978792 1.980567 -2.012956 0.324460 0.177095 -0.710080 -1.585834 3.777493 -3.338581 -3.416073 1.333084 -8.624761 1.745476 -25.080960 -0.534557 2.865467 -61.397388 -7.176747 12.194280 5.830219 -25.392813 17.300354 3.261793 1.387732 2.237648 24.769670 3.778699 2.556565 61.807089 4.606377 17.097118 -10.299073 24.809950 10.280796 -10.752548 -0.940578 2.661147 
-1.709032 0.269047 0.992665 88.592151 1.637712 88.450047 1.860704 2.684475 2.464853 -2.412983 -5.587709 4.160913 5.070877 9.929274 -14.940326 0.000000 -0.000000 0.000000 -1.355917 -1.619000 -4.856268 0.004698 -0.699564 15.643009 2.432054 -6.357202 -14.673289 0.000000 -0.000000 0.000000 1.052982 0.248478 5.992752 2.017263 -2.028298 0.373822 0.199628 -0.708354 -1.543986 3.771203 -3.314195 -3.493761 1.336495 -8.718928 1.747358 -25.017429 -0.594765 2.837698 -61.492581 -7.276915 12.247924 5.888076 -25.377095 17.241183 3.180217 1.416019 2.145540 24.804332 3.767299 2.466783 61.791472 4.609974 17.117573 -10.333994 24.885778 10.279972 -10.641615 -0.905452 2.626840 
